<?xml version="1.0" encoding="UTF-8"?>
<svg width="471px" height="158px" viewBox="0 0 471 158" version="1.1" xmlns="http://www.w3.org/2000/svg" xmlns:xlink="http://www.w3.org/1999/xlink">
    <!-- Generator: sketchtool 54.1 (76490) - https://sketchapp.com -->
    <title>CA58548D-2E00-4061-9077-93820E09B6D7</title>
    <desc>Created with sketchtool.</desc>
    <g id="Asset-Artboard-Page" stroke="none" stroke-width="1" fill="none" fill-rule="evenodd" stroke-linecap="round" stroke-linejoin="round">
        <g id="heart-" stroke="#231F20" stroke-width="4">
            <g transform="translate(0.000000, 4.000000)">
                <path d="M233.1798,12.9451 C233.1798,12.9451 248.8998,25.1241 248.8998,37.5381 C248.8998,46.2201 241.8618,53.2581 233.1798,53.2581" id="Stroke-1"></path>
                <path d="M233.1798,12.9451 C233.1798,12.9451 217.4598,25.1241 217.4598,37.5381 C217.4598,46.2201 224.4978,53.2581 233.1798,53.2581" id="Stroke-3"></path>
                <path d="M240.587,133.8919 C247.252,136.9959 253.326,136.7369 259.965,136.7369 C318.816,136.7369 466.359,137.6909 466.359,137.6909" id="Stroke-5"></path>
                <path d="M233.1798,12.9451 C216.2008,-4.0339 188.0938,-4.5939 171.6948,12.9451 C155.8928,29.8451 158.3058,53.6221 171.6948,74.4301 C178.1118,84.4041 187.4018,97.7471 206.8568,113.5201 C211.2748,117.1021 216.5818,121.7301 223.1638,125.9091" id="Stroke-7"></path>
                <path d="M233.1798,12.9451 C233.1798,12.9451 217.4598,25.1241 217.4598,37.5381 C217.4598,46.2201 224.4978,53.2581 233.1798,53.2581" id="Stroke-9"></path>
                <path d="M233.1798,12.9451 C233.1798,12.9451 248.8998,25.1241 248.8998,37.5381 C248.8998,46.2201 241.8618,53.2581 233.1798,53.2581" id="Stroke-11"></path>
                <path d="M233.1798,12.9451 C250.1588,-4.0339 278.2658,-4.5939 294.6648,12.9451 C310.4668,29.8451 308.0538,53.6221 294.6648,74.4301 C288.2478,84.4041 278.9568,97.7471 259.5018,113.5201 C248.8998,122.1151 229.5818,136.0011 206.9858,136.7371 C148.1668,138.6501 -0.0002,137.6911 -0.0002,137.6911" id="Stroke-13" stroke-dasharray="10,12"></path>
                <path d="M233.1798,12.9451 C250.1588,-4.0339 278.2658,-4.5939 294.6648,12.9451 C310.4668,29.8451 308.0538,53.6221 294.6648,74.4301" id="Stroke-15"></path>
                <polyline id="Stroke-17" points="454.0499 125.3812 466.3599 137.6912 454.0499 150.0002"></polyline>
            </g>
        </g>
    </g>
</svg>