<?xml version="1.0" encoding="UTF-8"?>
<svg width="139px" height="213px" viewBox="0 0 139 213" version="1.1" xmlns="http://www.w3.org/2000/svg" xmlns:xlink="http://www.w3.org/1999/xlink">
    <!-- Generator: sketchtool 54.1 (76490) - https://sketchapp.com -->
    <title>C1361BCE-093E-4EFD-97CF-9ED7F4B23B30</title>
    <desc>Created with sketchtool.</desc>
    <g id="Asset-Artboard-Page" stroke="none" stroke-width="1" fill="none" fill-rule="evenodd">
        <g id="phonefriend_icon">
            <g id="Group" transform="translate(2.000000, 3.000000)">
                <path d="M0,172.279657 C0,172.279657 14.848133,151.107531 16.5305473,148 C17.8572397,152.030064 28.0629513,166.323304 39.4340279,171.664969 C50.8061065,177.006634 64.1181221,179.255809 68,175.43532 L56.8062833,206.999977 C56.8062833,206.999977 19.2320297,207.193508 0,172.279657" id="Stroke-2" stroke="#0D2138" stroke-width="3" stroke-linecap="round" stroke-linejoin="round"></path>
                <path d="M124,92.5339528 L124,16.2304503 C124,12.7899929 121.229503,10 117.810866,10 L61.1881402,10 C57.7704975,10 55,12.7899929 55,16.2304503 L55,129.76955 C55,133.210007 57.7704975,136 61.1881402,136 L115.398237,136 C116.151748,136 116.716385,135.3005 116.561309,134.55797 L114.027402,122.415297 C114.027402,122.415297 110.3175,106.542959 100.139128,103.50579 C89.9607555,100.469621 80.2814107,100.178413 80.2814107,91.7714081 C80.2814107,83.3644031 87.3751567,83.5485347 87.9149414,83.5525375 C88.3742058,83.5555397 106.765657,85.1867048 112.287764,85.677055 C113.305701,85.7681201 114.285862,86.1113653 115.14077,86.6757684 L124,92.5339528" id="Fill-1" fill="#D9CAFA" transform="translate(89.500000, 73.000000) scale(-1, 1) translate(-89.500000, -73.000000) "></path>
                <path d="M61.6649269,176.903618 C66.1968704,174.254042 87.0277867,161.285414 93,149" id="Stroke-3" stroke="#0D2138" stroke-width="3" stroke-linecap="round" stroke-linejoin="round"></path>
                <path d="M19.9160867,153.303167 C19.9160867,153.303167 23.1994198,103.870092 28.0695804,93.8825908 C31.779269,86.2726833 40.8719783,77.6723629 45,74 L45,103.023319 C43.3477857,105.208054 41.8021659,107.471137 40.390292,109.82161" id="Stroke-5" stroke="#0D2138" stroke-width="3" stroke-linecap="round" stroke-linejoin="round"></path>
                <path d="M61.9076041,136.043217 C61.9076041,136.043217 61.0936011,141.882498 58.9763913,149 L92.8818216,149 L122.899686,149 C129.030772,149 134,144.025574 134,137.889312 L134,11.1096843 C134,4.97442562 129.030772,0 122.899686,0 L56.1003143,0 C49.9692277,0 45,4.97442562 45,11.1096843 L45,73.9451679" id="Stroke-7" stroke="#0D2138" stroke-width="3" stroke-linecap="round" stroke-linejoin="round"></path>
                <path d="M55,93 C53.0712442,94.5130318 51.2405782,96.1343427 49.5503356,97.8840552 C47.946825,99.5235722 46.4362416,101.235914 45,103" id="Stroke-9" stroke="#0D2138" stroke-width="3" stroke-linecap="round" stroke-linejoin="round"></path>
                <path d="M90.5765718,99.9909935 L87.09337,101.075777 L81.2522475,102.690943 C73.6009336,104.831489 68.2548551,110.382498 65.3183888,121.026186 C64.0698438,125.97576 63.0211059,130.97337 62.1393707,136 L118.062453,136 C121.340878,136 124,133.325068 124,130.023684 L124,15.977317 C124,12.6769333 121.340878,10 118.062453,10 L60.9375468,10 C57.6591223,10 55,12.6769333 55,15.977317 L55,73.8511147" id="Stroke-11" stroke="#0D2138" stroke-width="3" stroke-linecap="round" stroke-linejoin="round"></path>
                <path d="M55,74 L55,93 C57.1605194,91.1274772 59.4539634,89.4177825 61.8852917,87.9197643 L63.9188385,86.6873594 C64.6826585,86.2314408 65.5506358,85.9933048 66.4325007,85.9983931 C70.2119217,85.7846813 74.0230859,85.4885378 77.8352421,85.127263 L83.5668681,84.6347081 L88,84.0922871" id="Stroke-13" stroke="#0D2138" stroke-width="3" stroke-linecap="round" stroke-linejoin="round"></path>
                <path d="M90.5896615,100 L92.9914134,99.2948066 L92.9914134,99.4204557 C96.9580519,98.3441592 99.4861036,94.6633225 98.921348,90.7867069 C98.2949826,86.4854169 94.1116833,83.4815269 89.5772086,84.0747075 L89.245543,84.0747075 L88,84.215941" id="Stroke-15" stroke="#0D2138" stroke-width="3" stroke-linecap="round" stroke-linejoin="round"></path>
                <path d="M114.784383,66.0073326 C114.784383,65.62348 114.175397,65.2396274 113.774695,65.1424244 C108.99306,64.0116957 104.189604,62.9444465 99.3663122,61.9406768 C98.9080845,61.9267906 98.4726691,62.1360746 98.196939,62.5010818 C97.7337522,63.2539091 97.3320591,64.1019556 96.9323497,64.838913 C96.7558032,65.1910259 96.5961178,65.5431388 96.4364324,65.8952516 C96.0357311,66.7918997 95.6677605,66.6163392 94.6104646,66.632209 C89.6959235,66.6163392 77.1759937,54.1108764 77.3515485,49.308255 C77.3515485,48.2677862 77.1918631,47.8988116 78.0884817,47.4990891 C78.5843991,47.2749271 79.0971776,47.0348952 79.5772256,46.7780016 C80.216959,46.4586203 80.8576843,46.1065074 81.4825401,45.7216629 C81.8366251,45.4449319 82.0439186,45.0194209 82.0429268,44.5691131 C80.9757126,39.7654998 79.9084984,34.9628784 78.8412843,30.1592652 C78.7301988,29.6990388 78.4009096,29.3211373 77.9595432,29.1505361 C77.2890629,29.0295283 76.6076724,28.9809268 75.926282,29.0067154 L75.6069112,29.0067154 C70.8034556,29.278487 66,33.0565095 66,42.6796059 C66,56.176936 84.940076,78 101.335104,78 C110.604791,78 114.447159,73.50089 114.959938,68.9055689 C115.049203,67.9365145 114.988701,66.9585334 114.784383,66.0073326" id="Fill-17" fill="#0D2138"></path>
                <path d="M91,40 C97.6281266,40 103,45.3728673 103,52" id="Stroke-19" stroke="#0D2138" stroke-width="3" stroke-linecap="round" stroke-linejoin="round"></path>
                <path d="M90,30 C102.140998,29.9907976 111.990798,39.8330346 112,51.9836287 L112,52" id="Stroke-21" stroke="#0D2138" stroke-width="3" stroke-linecap="round" stroke-linejoin="round"></path>
                <path d="M91,47 L91,52 L96,52 C96.0106797,49.2544027 93.7738265,47.0190961 91,47" id="Fill-23" fill="#0D2138"></path>
            </g>
        </g>
    </g>
</svg>