<?xml version="1.0" encoding="UTF-8"?>
<svg width="139px" height="211px" viewBox="0 0 139 211" version="1.1" xmlns="http://www.w3.org/2000/svg" xmlns:xlink="http://www.w3.org/1999/xlink">
    <!-- Generator: sketchtool 54.1 (76490) - https://sketchapp.com -->
    <title>A09E54F3-49A4-438D-85DF-9D369CDED9B2</title>
    <desc>Created with sketchtool.</desc>
    <g id="Asset-Artboard-Page" stroke="none" stroke-width="1" fill="none" fill-rule="evenodd">
        <g id="takecall_icon">
            <path d="M81.5965,93.6595 L81.5965,17.4105 C81.5965,13.9725 78.8095,11.1845 75.3705,11.1845 L18.4105,11.1845 C14.9725,11.1845 12.1855,13.9725 12.1855,17.4105 L12.1855,130.8685 C12.1855,134.3065 14.9725,137.0945 18.4105,137.0945 L72.9435,137.0945 C73.7015,137.0945 74.2695,136.3955 74.1135,135.6535 L71.5645,123.5195 C71.5645,123.5195 67.8325,107.6585 57.5935,104.6235 C47.3545,101.5895 37.6175,101.2985 37.6175,92.8975 C37.6175,84.4965 44.7535,84.6805 45.2965,84.6845 C45.7585,84.6875 64.2595,86.3175 69.8145,86.8075 C70.8385,86.8985 71.8245,87.2415 72.6845,87.8055 L81.5965,93.6595" id="Fill-1" fill="#F8B99C"></path>
            <g id="Group-25" transform="translate(2.000000, 0.620000)">
                <path d="M67.7811,66.1426 C67.7811,65.7556 67.1671,65.3686 66.7631,65.2706 C61.9421,64.1306 57.0991,63.0546 52.2361,62.0426 C51.7741,62.0286 51.3351,62.2396 51.0571,62.6076 C50.5901,63.3666 50.1851,64.2216 49.7821,64.9646 C49.6041,65.3196 49.4431,65.6746 49.2821,66.0296 C48.8781,66.9336 48.5071,66.7566 47.4411,66.7726 C42.4861,66.7566 29.8631,54.1486 30.0401,49.3066 C30.0401,48.2576 29.8791,47.8856 30.7831,47.4826 C31.2831,47.2566 31.8001,47.0146 32.2841,46.7556 C32.9291,46.4336 33.5751,46.0786 34.2051,45.6906 C34.5621,45.4116 34.7711,44.9826 34.7701,44.5286 C33.6941,39.6856 32.6181,34.8436 31.5421,30.0006 C31.4301,29.5366 31.0981,29.1556 30.6531,28.9836 C29.9771,28.8616 29.2901,28.8126 28.6031,28.8386 L28.2811,28.8386 C23.4381,29.1126 18.5951,32.9216 18.5951,42.6236 C18.5951,56.2316 37.6911,78.2336 54.2211,78.2336 C63.5671,78.2336 67.4411,73.6976 67.9581,69.0646 C68.0481,68.0876 67.9871,67.1016 67.7811,66.1426" id="Fill-3" fill="#0D2138"></path>
                <path d="M43.9061,40.0893 C50.5751,40.0893 55.9801,45.4953 55.9801,52.1633" id="Stroke-5" stroke="#0D2138" stroke-width="3" stroke-linecap="round" stroke-linejoin="round"></path>
                <path d="M43.9061,30.6620937 C55.7811,30.6531 65.4151,40.2721 65.4241,52.1471 L65.4241,52.1631" id="Stroke-7" stroke="#0D2138" stroke-width="3" stroke-linecap="round" stroke-linejoin="round"></path>
                <path d="M43.9061,47.4502 L43.9061,52.1632 L48.5711358,52.1632 C48.5811,49.5752 46.4941,47.4682 43.9061,47.4502" id="Fill-9" fill="#0D2138"></path>
                <path d="M134.1248,172.875 C114.9328,207.693 77.4338,207.5 77.4338,207.5 L66.2638,176.022 C70.1378,179.832 83.4228,177.589 94.7708,172.262 C106.1178,166.935 116.3048,152.681 117.6278,148.662 C119.3068,151.761 134.1248,172.875 134.1248,172.875" id="Stroke-11" stroke="#0D2138" stroke-width="3" stroke-linecap="round" stroke-linejoin="round"></path>
                <path d="M72.7909,177.9219 C68.2189,175.3149 47.5419,161.4759 41.5169,149.3879" id="Stroke-13" stroke="#0D2138" stroke-width="3" stroke-linecap="round" stroke-linejoin="round"></path>
                <path d="M115.1375,153.2295 C115.1375,153.2295 110.9605,104.3185 106.1175,94.3755 C102.4295,86.7995 93.3875,78.2375 89.2825,74.5815 L89.2825,103.4755 C90.9245,105.6505 92.4615,107.9035 93.8665,110.2435" id="Stroke-15" stroke="#0D2138" stroke-width="3" stroke-linecap="round" stroke-linejoin="round"></path>
                <path d="M72.4159,136.4741 C72.4159,136.4741 73.2269,142.2941 75.3399,149.3881 L41.5169,149.3881 L11.5729,149.3881 C5.4579,149.3881 0.4999,144.4301 0.4999,138.3141 L0.4999,11.9531 C0.4999,5.8381 5.4579,0.8801 11.5729,0.8801 L78.2089,0.8801 C84.3239,0.8801 89.2819,5.8381 89.2819,11.9531 L89.2819,74.5811" id="Stroke-17" stroke="#0D2138" stroke-width="3" stroke-linecap="round" stroke-linejoin="round"></path>
                <path d="M79.5965,93.0395 C81.4645,94.6185 83.2375,96.3105 84.8745,98.1365 C86.4275,99.8475 87.8915,101.6345 89.2825,103.4755" id="Stroke-19" stroke="#0D2138" stroke-width="3" stroke-linecap="round" stroke-linejoin="round"></path>
                <path d="M79.5965,74.3696 L79.5965,93.0396 C77.4185,91.1996 75.1065,89.5196 72.6565,88.0476 L70.6055,86.8366 C69.8365,86.3886 68.9615,86.1546 68.0715,86.1596 C64.2615,85.9496 60.4195,85.6586 56.5775,85.3036 L50.7985,84.8196 L46.3305,84.2866" id="Stroke-21" stroke="#0D2138" stroke-width="3" stroke-linecap="round" stroke-linejoin="round"></path>
                <path d="M46.3309,84.2861 L45.1169,84.1411 L44.7939,84.1411 C40.3789,83.5311 36.3049,86.6161 35.6939,91.0321 C35.1439,95.0121 37.6049,98.7901 41.4689,99.8961 L43.8089,100.4911 L47.3119,101.5751 L53.1879,103.1891 C60.8849,105.3281 66.2639,110.8751 69.2179,121.5101 C70.4729,126.4571 71.5269,131.4511 72.4159,136.4741 L16.1579,136.4741 C12.8589,136.4741 10.1849,133.8001 10.1849,130.5011 L10.1849,16.5371 C10.1849,13.2391 12.8589,10.5651 16.1579,10.5651 L73.6239,10.5651 C76.9229,10.5651 79.5969,13.2391 79.5969,16.5371 L79.5969,74.3691" id="Stroke-23" stroke="#0D2138" stroke-width="3" stroke-linecap="round" stroke-linejoin="round"></path>
            </g>
        </g>
    </g>
</svg>